<svg width="40" height="40" viewBox="0 0 40 40" fill="none" xmlns="http://www.w3.org/2000/svg">
<rect width="40" height="40" fill="#CEFDC0"/>
<g clip-path="url(#clip0_24_98)">
<path d="M8.05688 32L9.74388 25.837C8.70288 24.033 8.15588 21.988 8.15688 19.891C8.15988 13.335 13.4949 8 20.0499 8C23.2309 8.001 26.2169 9.24 28.4629 11.488C30.7079 13.736 31.9439 16.724 31.9429 19.902C31.9399 26.459 26.6049 31.794 20.0499 31.794C18.0599 31.793 16.0989 31.294 14.3619 30.346L8.05688 32ZM14.6539 28.193C16.3299 29.188 17.9299 29.784 20.0459 29.785C25.4939 29.785 29.9319 25.351 29.9349 19.9C29.9369 14.438 25.5199 10.01 20.0539 10.008C14.6019 10.008 10.1669 14.442 10.1649 19.892C10.1639 22.117 10.8159 23.783 11.9109 25.526L10.9119 29.174L14.6539 28.193ZM26.0409 22.729C25.9669 22.605 25.7689 22.531 25.4709 22.382C25.1739 22.233 23.7129 21.514 23.4399 21.415C23.1679 21.316 22.9699 21.266 22.7709 21.564C22.5729 21.861 22.0029 22.531 21.8299 22.729C21.6569 22.927 21.4829 22.952 21.1859 22.803C20.8889 22.654 19.9309 22.341 18.7959 21.328C17.9129 20.54 17.3159 19.567 17.1429 19.269C16.9699 18.972 17.1249 18.811 17.2729 18.663C17.4069 18.53 17.5699 18.316 17.7189 18.142C17.8699 17.97 17.9189 17.846 18.0189 17.647C18.1179 17.449 18.0689 17.275 17.9939 17.126C17.9189 16.978 17.3249 15.515 17.0779 14.92C16.8359 14.341 16.5909 14.419 16.4089 14.41L15.8389 14.4C15.6409 14.4 15.3189 14.474 15.0469 14.772C14.7749 15.07 14.0069 15.788 14.0069 17.251C14.0069 18.714 15.0719 20.127 15.2199 20.325C15.3689 20.523 17.3149 23.525 20.2959 24.812C21.0049 25.118 21.5589 25.301 21.9899 25.438C22.7019 25.664 23.3499 25.632 23.8619 25.556C24.4329 25.471 25.6199 24.837 25.8679 24.143C26.1159 23.448 26.1159 22.853 26.0409 22.729Z" fill="#017D10"/>
</g>
<defs>
<clipPath id="clip0_24_98">
<rect width="24" height="24" fill="white" transform="translate(8 8)"/>
</clipPath>
</defs>
</svg>
