<svg width="10" height="13" viewBox="0 0 10 13" fill="none" xmlns="http://www.w3.org/2000/svg">
<path d="M5 12.9616C4.73244 12.9616 4.49589 12.8911 4.29033 12.7501C4.08478 12.609 3.941 12.4239 3.859 12.1949H3.66667C3.394 12.1949 3.15917 12.0964 2.96217 11.8994C2.76517 11.7024 2.66667 11.4676 2.66667 11.1949V9.00775C1.994 8.60008 1.46472 8.05353 1.07883 7.36808C0.692944 6.68253 0.5 5.94875 0.5 5.16675C0.5 3.91208 0.936334 2.84841 1.809 1.97575C2.68167 1.10308 3.74533 0.666748 5 0.666748C6.25467 0.666748 7.31833 1.10308 8.191 1.97575C9.06367 2.84841 9.5 3.91208 9.5 5.16675C9.5 5.96242 9.30706 6.69958 8.92117 7.37825C8.53528 8.05692 8.006 8.60008 7.33333 9.00775V11.1949C7.33333 11.4676 7.23483 11.7024 7.03783 11.8994C6.84083 12.0964 6.606 12.1949 6.33333 12.1949H6.141C6.059 12.4239 5.91522 12.609 5.70967 12.7501C5.50411 12.8911 5.26756 12.9616 5 12.9616ZM3.66667 11.1949H6.33333V10.5693H3.66667V11.1949ZM3.66667 9.97958H6.33333V9.33342H3.66667V9.97958ZM3.53333 8.33342H4.6025V6.39242L3.17433 4.96425L3.73333 4.40525L5 5.67192L6.26667 4.40525L6.82567 4.96425L5.3975 6.39242V8.33342H6.46667C7.06667 8.04453 7.55556 7.61953 7.93333 7.05842C8.31111 6.4973 8.5 5.86675 8.5 5.16675C8.5 4.18897 8.16111 3.36119 7.48333 2.68341C6.80556 2.00564 5.97778 1.66675 5 1.66675C4.02222 1.66675 3.19444 2.00564 2.51667 2.68341C1.83889 3.36119 1.5 4.18897 1.5 5.16675C1.5 5.86675 1.68889 6.4973 2.06667 7.05842C2.44444 7.61953 2.93333 8.04453 3.53333 8.33342Z" fill="#727273"/>
</svg>
