<svg width="24" height="24" viewBox="0 0 24 24" fill="none" xmlns="http://www.w3.org/2000/svg">
<mask id="mask0_6808_53004" style="mask-type:alpha" maskUnits="userSpaceOnUse" x="0" y="0" width="24" height="24">
<rect width="24" height="24" fill="#D9D9D9"/>
</mask>
<g mask="url(#mask0_6808_53004)">
<path d="M2.49976 18.4805V16.9805H12.2785V18.4805H2.49976ZM2.49976 13.5863V12.0863H7.23051V13.5863H2.49976ZM2.49976 8.69201V7.19201H7.23051V8.69201H2.49976ZM20.446 18.4998L16.5768 14.6593C16.1959 14.9363 15.7808 15.1472 15.3315 15.292C14.8822 15.4368 14.4254 15.5093 13.9613 15.5093C12.7083 15.5093 11.6403 15.0715 10.7573 14.196C9.87409 13.3203 9.43251 12.2565 9.43251 11.0045C9.43251 9.75267 9.87426 8.68892 10.7578 7.81326C11.6414 6.93759 12.71 6.49976 13.9635 6.49976C15.2172 6.49976 16.285 6.93759 17.167 7.81326C18.049 8.68892 18.49 9.75109 18.49 10.9998C18.49 11.4639 18.4176 11.9207 18.2728 12.37C18.1279 12.8193 17.9138 13.2312 17.6305 13.6055L21.4998 17.446L20.446 18.4998ZM13.9613 14.0093C14.8026 14.0093 15.5178 13.7176 16.1068 13.1343C16.6958 12.5509 16.9903 11.841 16.9903 11.0045C16.9903 10.168 16.6958 9.45809 16.1068 8.87476C15.5178 8.29142 14.8026 7.99976 13.9613 7.99976C13.1199 7.99976 12.4048 8.29142 11.8158 8.87476C11.2269 9.45809 10.9325 10.168 10.9325 11.0045C10.9325 11.841 11.2269 12.5509 11.8158 13.1343C12.4048 13.7176 13.1199 14.0093 13.9613 14.0093Z" fill="#DE387F"/>
</g>
</svg>
