<svg width="20" height="14" viewBox="0 0 20 14" fill="none" xmlns="http://www.w3.org/2000/svg">
<path d="M0 0.725335C0 0.569322 0.0619761 0.419698 0.172295 0.309379C0.282613 0.199061 0.432237 0.137085 0.588251 0.137085H17.8436C17.9996 0.137085 18.1492 0.199061 18.2596 0.309379C18.3699 0.419698 18.4318 0.569322 18.4318 0.725335C18.4318 0.881349 18.3699 1.03097 18.2596 1.14129C18.1492 1.25161 17.9996 1.31359 17.8436 1.31359H0.588251C0.432237 1.31359 0.282613 1.25161 0.172295 1.14129C0.0619761 1.03097 0 0.881349 0 0.725335ZM0.588251 7.58826H7.64726C7.80327 7.58826 7.95289 7.52628 8.06321 7.41596C8.17353 7.30565 8.23551 7.15602 8.23551 7.00001C8.23551 6.84399 8.17353 6.69437 8.06321 6.58405C7.95289 6.47373 7.80327 6.41176 7.64726 6.41176H0.588251C0.432237 6.41176 0.282613 6.47373 0.172295 6.58405C0.0619761 6.69437 0 6.84399 0 7.00001C0 7.15602 0.0619761 7.30565 0.172295 7.41596C0.282613 7.52628 0.432237 7.58826 0.588251 7.58826ZM9.21592 12.6864H0.588251C0.432237 12.6864 0.282613 12.7484 0.172295 12.8587C0.0619761 12.969 0 13.1187 0 13.2747C0 13.4307 0.0619761 13.5803 0.172295 13.6906C0.282613 13.801 0.432237 13.8629 0.588251 13.8629H9.21592C9.37194 13.8629 9.52156 13.801 9.63188 13.6906C9.7422 13.5803 9.80418 13.4307 9.80418 13.2747C9.80418 13.1187 9.7422 12.969 9.63188 12.8587C9.52156 12.7484 9.37194 12.6864 9.21592 12.6864ZM19.828 13.6904C19.7177 13.8005 19.5682 13.8624 19.4123 13.8624C19.2564 13.8624 19.1069 13.8005 18.9966 13.6904L16.8897 11.5844C16.1296 12.1351 15.19 12.3791 14.2581 12.2679C13.3262 12.1567 12.4704 11.6983 11.8613 10.9843C11.2522 10.2702 10.9346 9.35282 10.9718 8.41501C11.0089 7.47721 11.3981 6.58784 12.0618 5.92419C12.7254 5.26054 13.6148 4.87135 14.5526 4.83419C15.4904 4.79704 16.4078 5.11465 17.1219 5.72371C17.8359 6.33278 18.2943 7.18856 18.4055 8.12049C18.5167 9.05242 18.2727 9.99204 17.722 10.7521L19.828 12.859C19.9381 12.9693 20 13.1188 20 13.2747C20 13.4306 19.9381 13.5801 19.828 13.6904ZM14.7063 11.1178C15.2104 11.1178 15.7033 10.9683 16.1225 10.6882C16.5417 10.4081 16.8684 10.01 17.0613 9.54417C17.2542 9.07838 17.3047 8.56585 17.2064 8.07137C17.108 7.5769 16.8652 7.1227 16.5087 6.7662C16.1522 6.4097 15.698 6.16693 15.2036 6.06857C14.7091 5.97021 14.1966 6.02069 13.7308 6.21363C13.265 6.40656 12.8669 6.73328 12.5868 7.15248C12.3067 7.57168 12.1572 8.06451 12.1572 8.56868C12.1572 9.24474 12.4257 9.89311 12.9038 10.3712C13.3818 10.8492 14.0302 11.1178 14.7063 11.1178Z" fill="#DE387F"/>
</svg>
