<svg width="24" height="24" viewBox="0 0 24 24" fill="none" xmlns="http://www.w3.org/2000/svg">
<mask id="mask0_6808_53011" style="mask-type:alpha" maskUnits="userSpaceOnUse" x="0" y="0" width="24" height="24">
<rect width="24" height="24" fill="#D9D9D9"/>
</mask>
<g mask="url(#mask0_6808_53011)">
<path d="M9.75013 20.5958C8.95147 20.5958 8.26463 20.3192 7.68963 19.766C7.11463 19.2129 6.7983 18.542 6.74063 17.7535C5.82397 17.6139 5.06113 17.1947 4.45213 16.496C3.84313 15.7972 3.53863 14.9779 3.53863 14.0383C3.53863 13.7101 3.5813 13.3859 3.66663 13.0655C3.7518 12.7452 3.87963 12.4444 4.05013 12.1633C3.84763 11.8696 3.69572 11.552 3.59438 11.2105C3.49305 10.8689 3.44238 10.5102 3.44238 10.1345C3.44238 9.17519 3.75813 8.34561 4.38963 7.64577C5.02097 6.94594 5.80272 6.53894 6.73488 6.42477C6.72838 6.3991 6.72513 6.37344 6.72513 6.34777V6.26127C6.75597 5.4561 7.06397 4.77535 7.64913 4.21902C8.23447 3.66269 8.9348 3.38452 9.75013 3.38452C10.2091 3.38452 10.6181 3.47427 10.9771 3.65377C11.3361 3.8331 11.6771 4.08694 12.0001 4.41527C12.3193 4.08694 12.6578 3.8331 13.0156 3.65377C13.3733 3.47427 13.7848 3.38452 14.2501 3.38452C15.0565 3.38452 15.7504 3.66169 16.3319 4.21602C16.9132 4.77052 17.2193 5.44719 17.2501 6.24602V6.33252C17.2501 6.35819 17.2469 6.38385 17.2404 6.40952C18.1725 6.52352 18.9585 6.93152 19.5981 7.63352C20.238 8.33535 20.5579 9.16902 20.5579 10.1345C20.5579 10.5102 20.5056 10.8689 20.4011 11.2105C20.2966 11.552 20.143 11.8696 19.9404 12.1633C20.1109 12.4441 20.2404 12.7447 20.3289 13.065C20.4174 13.3855 20.4616 13.7099 20.4616 14.0383C20.4616 14.9946 20.1545 15.8196 19.5404 16.5133C18.9264 17.2068 18.1578 17.6202 17.2346 17.7535C17.177 18.542 16.8648 19.2129 16.2981 19.766C15.7315 20.3192 15.0488 20.5958 14.2501 20.5958C13.7886 20.5958 13.378 20.5086 13.0184 20.3343C12.6587 20.1599 12.3193 19.9054 12.0001 19.5708C11.6706 19.9054 11.327 20.1599 10.9694 20.3343C10.6117 20.5086 10.2053 20.5958 9.75013 20.5958ZM12.7501 6.38452V17.596C12.7501 18.016 12.8955 18.371 13.1864 18.661C13.4772 18.951 13.8331 19.096 14.2541 19.096C14.6553 19.096 14.9991 18.9466 15.2856 18.6478C15.5723 18.3491 15.7271 18.001 15.7501 17.6035C15.3296 17.5152 14.9415 17.3553 14.5856 17.1238C14.23 16.8924 13.9226 16.5959 13.6636 16.2343C13.5355 16.0588 13.4871 15.8719 13.5186 15.6735C13.5501 15.4752 13.6542 15.3141 13.8309 15.1903C14.0065 15.0619 14.1947 15.0136 14.3954 15.0453C14.5962 15.0768 14.7593 15.1809 14.8846 15.3575C15.0915 15.6584 15.3547 15.8887 15.6744 16.0485C15.994 16.2084 16.3398 16.2883 16.7116 16.2883C17.3386 16.2883 17.8704 16.07 18.3069 15.6335C18.7434 15.1969 18.9616 14.6651 18.9616 14.0383C18.9616 13.9121 18.9495 13.786 18.9251 13.66C18.9008 13.534 18.8623 13.4101 18.8096 13.2883C18.5263 13.4806 18.2138 13.628 17.8721 13.7305C17.5305 13.833 17.1757 13.8843 16.8079 13.8843C16.5954 13.8843 16.4172 13.8124 16.2734 13.6688C16.1297 13.5249 16.0579 13.3467 16.0579 13.134C16.0579 12.9215 16.1297 12.7434 16.2734 12.5998C16.4172 12.4563 16.5954 12.3845 16.8079 12.3845C17.4347 12.3845 17.9665 12.1662 18.4031 11.7295C18.8396 11.293 19.0579 10.7614 19.0579 10.1345C19.0579 9.51752 18.8428 8.99402 18.4126 8.56402C17.9825 8.13402 17.4604 7.90744 16.8464 7.88427C16.6757 8.19077 16.451 8.45811 16.1721 8.68627C15.8933 8.91444 15.5821 9.09519 15.2386 9.22852C15.0425 9.30286 14.851 9.29669 14.6641 9.21002C14.4773 9.12335 14.3528 8.98085 14.2906 8.78252C14.2265 8.58635 14.2341 8.39369 14.3136 8.20452C14.3931 8.01552 14.5341 7.88894 14.7366 7.82477C15.038 7.72227 15.2822 7.54019 15.4694 7.27852C15.6565 7.01702 15.7501 6.71735 15.7501 6.37952C15.7501 5.96219 15.6051 5.60869 15.3149 5.31902C15.0249 5.02919 14.6698 4.88427 14.2496 4.88427C13.8295 4.88427 13.4745 5.02927 13.1846 5.31927C12.895 5.60927 12.7501 5.96435 12.7501 6.38452ZM11.2501 17.596V6.38452C11.2501 5.96435 11.105 5.60927 10.8149 5.31927C10.5249 5.02927 10.1698 4.88427 9.74963 4.88427C9.32947 4.88427 8.97447 5.02927 8.68463 5.31927C8.39497 5.60927 8.25013 5.96435 8.25013 6.38452C8.25013 6.70885 8.34113 7.00435 8.52313 7.27102C8.7053 7.53769 8.94697 7.72227 9.24813 7.82477C9.4443 7.88894 9.58788 8.01394 9.67888 8.19977C9.76988 8.3856 9.78388 8.57735 9.72088 8.77502C9.64538 8.97252 9.51313 9.11444 9.32413 9.20077C9.13513 9.28727 8.9393 9.29335 8.73663 9.21902C8.39313 9.08569 8.08197 8.90652 7.80313 8.68152C7.5243 8.45652 7.29955 8.19077 7.12888 7.88427C6.53155 7.90744 6.0178 8.13727 5.58763 8.57377C5.15747 9.01027 4.94238 9.53152 4.94238 10.1375C4.94238 10.7624 5.16063 11.293 5.59713 11.7295C6.0338 12.1662 6.56555 12.3845 7.19238 12.3845C7.40488 12.3845 7.58305 12.4564 7.72688 12.6C7.87055 12.7439 7.94238 12.9221 7.94238 13.1348C7.94238 13.3473 7.87055 13.5254 7.72688 13.669C7.58305 13.8125 7.40488 13.8843 7.19238 13.8843C6.82455 13.8843 6.4698 13.833 6.12813 13.7305C5.78647 13.628 5.47397 13.4806 5.19063 13.2883C5.13797 13.4101 5.09947 13.534 5.07513 13.66C5.0508 13.786 5.03863 13.9121 5.03863 14.0383C5.03863 14.6651 5.25688 15.1969 5.69338 15.6335C6.12988 16.07 6.66163 16.2883 7.28863 16.2883C7.6623 16.2883 8.00797 16.2079 8.32563 16.047C8.6433 15.886 8.90663 15.6562 9.11563 15.3575C9.24097 15.1809 9.40405 15.0768 9.60488 15.0453C9.80555 15.0136 9.99372 15.0603 10.1694 15.1853C10.345 15.3103 10.4489 15.4724 10.4809 15.6718C10.5129 15.8713 10.4648 16.0588 10.3366 16.2343C10.0713 16.5959 9.75813 16.895 9.39713 17.1315C9.0363 17.368 8.64563 17.5305 8.22513 17.619C8.24813 18.0165 8.40713 18.362 8.70213 18.6555C8.99697 18.9492 9.34497 19.096 9.74613 19.096C10.1671 19.096 10.523 18.951 10.8139 18.661C11.1047 18.371 11.2501 18.016 11.2501 17.596Z" fill="#DE387F"/>
</g>
</svg>
