<svg width="16" height="18" viewBox="0 0 16 18" fill="none" xmlns="http://www.w3.org/2000/svg">
<path d="M12.8725 12.3297C13.6642 11.6821 14.2981 10.8629 14.7262 9.93411C15.1543 9.00529 15.3655 7.99122 15.3436 6.96872C15.2655 3.47809 12.4718 0.600747 8.98894 0.417154C8.0871 0.368076 7.18462 0.501331 6.33544 0.808954C5.48627 1.11658 4.70783 1.59225 4.04667 2.20755C3.3855 2.82284 2.85518 3.56513 2.48739 4.39003C2.11961 5.21493 1.92192 6.10552 1.90613 7.00856L0.133475 10.4148C0.128006 10.425 0.123319 10.4351 0.118631 10.4461C0.00961596 10.7022 0.00234089 10.9902 0.0982886 11.2515C0.194236 11.5128 0.386188 11.7276 0.635038 11.8523L0.6491 11.8593L2.53035 12.7187V15.25C2.53035 15.54 2.64558 15.8182 2.8507 16.0234C3.05582 16.2285 3.33402 16.3437 3.6241 16.3437H7.3741C7.49842 16.3437 7.61765 16.2943 7.70556 16.2064C7.79346 16.1185 7.84285 15.9993 7.84285 15.875C7.84285 15.7506 7.79346 15.6314 7.70556 15.5435C7.61765 15.4556 7.49842 15.4062 7.3741 15.4062H3.62488C3.58344 15.4062 3.5437 15.3898 3.5144 15.3605C3.48509 15.3311 3.46863 15.2914 3.46863 15.25V12.4226C3.46872 12.3328 3.44299 12.2448 3.39451 12.1692C3.34604 12.0936 3.27685 12.0335 3.19519 11.9961L1.04676 11.014C1.01451 10.9963 0.989549 10.9678 0.976259 10.9335C0.962968 10.8992 0.962204 10.8613 0.9741 10.8265L2.78738 7.34137C2.82331 7.27483 2.84261 7.20058 2.84363 7.12497C2.84408 5.78145 3.31213 4.47999 4.16745 3.44391C5.02277 2.40783 6.21202 1.70175 7.53113 1.44684V2.97184C7.13201 3.08498 6.78728 3.33866 6.56054 3.68607C6.33381 4.03348 6.24038 4.45117 6.2975 4.86206C6.35461 5.27296 6.55841 5.64934 6.8713 5.92174C7.18418 6.19414 7.58503 6.34419 7.99988 6.34419C8.41473 6.34419 8.81558 6.19414 9.12846 5.92174C9.44135 5.64934 9.64515 5.27296 9.70226 4.86206C9.75938 4.45117 9.66595 4.03348 9.43922 3.68607C9.21249 3.33866 8.86775 3.08498 8.46863 2.97184V1.34762C8.62488 1.34372 8.78113 1.34372 8.93738 1.35231C10.114 1.41959 11.2423 1.84349 12.1722 2.56765C13.102 3.2918 13.7894 4.28189 14.1429 5.40622H12.3749C12.3061 5.40622 12.2383 5.42134 12.176 5.4505C12.1138 5.47966 12.0587 5.52215 12.0147 5.57497L9.94832 8.05465C9.56843 7.88488 9.13995 7.85827 8.74197 7.97975C8.344 8.10123 8.00342 8.36259 7.7831 8.71558C7.56278 9.06856 7.47761 9.48934 7.54331 9.90022C7.609 10.3111 7.82114 10.6843 8.14054 10.951C8.45994 11.2177 8.86504 11.3598 9.28105 11.3512C9.69706 11.3425 10.0959 11.1836 10.4039 10.9038C10.7119 10.6241 10.9083 10.2423 10.9568 9.82905C11.0053 9.41579 10.9027 8.99893 10.6679 8.65543L12.5944 6.34372H14.3522C14.382 6.55765 14.3994 6.7731 14.4046 6.98903C14.4247 7.90902 14.2256 8.82059 13.8238 9.64843C13.4219 10.4763 12.8289 11.1966 12.0936 11.75C12.0276 11.7996 11.9759 11.8657 11.9437 11.9417C11.9114 12.0177 11.8998 12.1009 11.91 12.1828L12.535 17.1828C12.5491 17.2962 12.6041 17.4005 12.6897 17.4762C12.7753 17.5518 12.8856 17.5936 12.9999 17.5937C13.0195 17.5936 13.039 17.5923 13.0585 17.5898C13.1196 17.5822 13.1786 17.5626 13.2321 17.5322C13.2856 17.5017 13.3326 17.461 13.3704 17.4124C13.4082 17.3638 13.4361 17.3082 13.4524 17.2489C13.4687 17.1895 13.4732 17.1275 13.4655 17.0664L12.8725 12.3297ZM8.78113 4.62497C8.78113 4.77948 8.73531 4.93053 8.64947 5.05901C8.56362 5.18748 8.44161 5.28762 8.29885 5.34675C8.1561 5.40588 7.99901 5.42135 7.84747 5.3912C7.69592 5.36106 7.55671 5.28665 7.44745 5.17739C7.33819 5.06813 7.26379 4.92893 7.23364 4.77738C7.2035 4.62583 7.21897 4.46875 7.2781 4.32599C7.33723 4.18324 7.43737 4.06123 7.56584 3.97538C7.69432 3.88954 7.84536 3.84372 7.99988 3.84372C8.20708 3.84372 8.4058 3.92603 8.55231 4.07254C8.69882 4.21905 8.78113 4.41777 8.78113 4.62497ZM9.24988 10.4062C9.09536 10.4062 8.94432 10.3604 8.81584 10.2746C8.68737 10.1887 8.58723 10.0667 8.5281 9.92394C8.46897 9.78118 8.4535 9.6241 8.48364 9.47255C8.51379 9.321 8.58819 9.1818 8.69745 9.07254C8.80671 8.96328 8.94592 8.88887 9.09747 8.85873C9.24901 8.82858 9.4061 8.84405 9.54885 8.90319C9.69161 8.96232 9.81362 9.06245 9.89947 9.19093C9.98531 9.3194 10.0311 9.47045 10.0311 9.62497C10.0311 9.83217 9.94882 10.0309 9.80231 10.1774C9.6558 10.3239 9.45708 10.4062 9.24988 10.4062Z" fill="#DE387F"/>
</svg>
