<svg width="14" height="14" viewBox="0 0 14 14" fill="none" xmlns="http://www.w3.org/2000/svg">
<path d="M0 7C0 3.13401 3.13401 0 7 0C10.866 0 14 3.13401 14 7C14 10.866 10.866 14 7 14C3.13401 14 0 10.866 0 7Z" fill="#E0E0E0"/>
<path d="M6.09561 8.7356V8.62942C6.09834 8.13664 6.14462 7.74459 6.23446 7.45328C6.32703 7.16197 6.45771 6.92783 6.62651 6.75087C6.79531 6.57118 7.00086 6.40646 7.24316 6.25673C7.40924 6.15327 7.55762 6.04028 7.6883 5.91777C7.8217 5.79253 7.92652 5.65368 8.00275 5.50122C8.07898 5.34604 8.1171 5.17316 8.1171 4.98258C8.1171 4.7675 8.06673 4.581 7.966 4.4231C7.86526 4.26519 7.72914 4.14267 7.55762 4.05555C7.38882 3.96843 7.1996 3.92487 6.98997 3.92487C6.79667 3.92487 6.6129 3.96707 6.43865 4.05147C6.26713 4.13315 6.1242 4.25838 6.00985 4.42718C5.89823 4.59325 5.83561 4.80425 5.822 5.06017H4.36816C4.38178 4.54289 4.50701 4.11 4.74387 3.76152C4.98346 3.41303 5.29927 3.15167 5.69132 2.97743C6.08609 2.80319 6.52169 2.71606 6.99814 2.71606C7.51814 2.71606 7.97553 2.80727 8.37029 2.98968C8.76779 3.17209 9.07679 3.43209 9.29732 3.76969C9.52057 4.10456 9.63219 4.50205 9.63219 4.96216C9.63219 5.27253 9.58182 5.55023 9.48109 5.79525C9.38308 6.04028 9.24287 6.25809 9.06046 6.44866C8.87805 6.63924 8.66161 6.8094 8.41113 6.95914C8.19061 7.09527 8.00956 7.23684 7.86799 7.38386C7.72914 7.53087 7.62568 7.70375 7.55762 7.9025C7.49228 8.09852 7.45824 8.34083 7.45552 8.62942V8.7356H6.09561ZM6.8062 11.2839C6.56117 11.2839 6.35017 11.1968 6.17321 11.0225C5.99624 10.8483 5.90776 10.6359 5.90776 10.3855C5.90776 10.1404 5.99624 9.93079 6.17321 9.75655C6.35017 9.58231 6.56117 9.49518 6.8062 9.49518C7.0485 9.49518 7.25814 9.58231 7.4351 9.75655C7.61479 9.93079 7.70463 10.1404 7.70463 10.3855C7.70463 10.5515 7.66244 10.7026 7.57804 10.8388C7.49636 10.9749 7.38746 11.0838 7.25133 11.1655C7.11793 11.2444 6.96955 11.2839 6.8062 11.2839Z" fill="#3D3D3D"/>
</svg>
