<svg width="24" height="24" viewBox="0 0 24 24" fill="none" xmlns="http://www.w3.org/2000/svg">
<mask id="mask0_6808_53018" style="mask-type:alpha" maskUnits="userSpaceOnUse" x="0" y="0" width="24" height="24">
<rect width="24" height="24" fill="#D9D9D9"/>
</mask>
<g mask="url(#mask0_6808_53018)">
<path d="M15.8459 12.6923L11.8882 8.8635C11.41 8.402 11.0077 7.88825 10.6814 7.32225C10.3551 6.75625 10.1919 6.13983 10.1919 5.473C10.1919 4.64717 10.481 3.94525 11.0592 3.36725C11.6372 2.78908 12.3391 2.5 13.1649 2.5C13.7047 2.5 14.2032 2.63017 14.6602 2.8905C15.1173 3.15067 15.5126 3.48208 15.8459 3.88475C16.1792 3.48208 16.5744 3.15067 17.0314 2.8905C17.4884 2.63017 17.9868 2.5 18.5267 2.5C19.3525 2.5 20.0544 2.78908 20.6324 3.36725C21.2106 3.94525 21.4997 4.64717 21.4997 5.473C21.4997 6.13983 21.3391 6.75625 21.0179 7.32225C20.6967 7.88825 20.2971 8.402 19.8189 8.8635L15.8459 12.6923ZM15.8459 10.604L18.7054 7.83275C19.0412 7.50325 19.3409 7.14492 19.6044 6.75775C19.8679 6.37058 19.9997 5.94233 19.9997 5.473C19.9997 5.0615 19.857 4.71317 19.5717 4.428C19.2865 4.14267 18.9382 4 18.5267 4C18.21 4 17.9202 4.08267 17.6574 4.248C17.3946 4.4135 17.1625 4.62317 16.9612 4.877L15.8459 6.2345L14.7304 4.877C14.5291 4.62317 14.297 4.4135 14.0342 4.248C13.7715 4.08267 13.4817 4 13.1649 4C12.7534 4 12.4051 4.14267 12.1199 4.428C11.8346 4.71317 11.6919 5.0615 11.6919 5.473C11.6919 5.94233 11.8237 6.37058 12.0872 6.75775C12.3507 7.14492 12.6503 7.50325 12.9862 7.83275L15.8459 10.604ZM6.70166 18.577L13.9592 20.6308L19.9284 18.7808C19.8772 18.5539 19.7715 18.3799 19.6112 18.2587C19.4508 18.1376 19.2694 18.077 19.0669 18.077H14.1697C13.7333 18.077 13.3626 18.0603 13.0574 18.027C12.7522 17.9937 12.4387 17.9206 12.1169 17.8077L9.85941 17.0615L10.3034 15.5922L12.3284 16.2962C12.6311 16.3987 12.9805 16.4686 13.3767 16.5057C13.7728 16.5429 14.3362 16.5667 15.0669 16.577C15.0669 16.3295 15.0112 16.116 14.8997 15.9365C14.7882 15.757 14.6413 15.6358 14.4592 15.573L8.65741 13.4423C8.63808 13.4359 8.62041 13.4312 8.60441 13.428C8.58841 13.4247 8.57083 13.423 8.55166 13.423H6.70166V18.577ZM1.70166 21.5V11.9233H8.54016C8.64516 11.9233 8.75149 11.9348 8.85916 11.9578C8.96699 11.9809 9.06699 12.0078 9.15916 12.0385L14.9862 14.1848C15.44 14.3526 15.8169 14.6497 16.1169 15.076C16.4169 15.5023 16.5669 16.0027 16.5669 16.577H19.0669C19.7849 16.577 20.3698 16.8088 20.8217 17.2723C21.2737 17.7356 21.4997 18.3372 21.4997 19.077V19.8845L14.0092 22.2115L6.70166 20.127V21.5H1.70166ZM3.20166 20H5.20166V13.423H3.20166V20Z" fill="#DE387F"/>
</g>
</svg>
