<svg width="20" height="16" viewBox="0 0 20 16" fill="none" xmlns="http://www.w3.org/2000/svg">
<path d="M19.2472 9.58052C19.0151 9.40173 18.7448 9.27902 18.4574 9.22198C18.17 9.16494 17.8733 9.17512 17.5905 9.25171L17.2244 9.33645C19.0676 7.62291 19.9998 5.92463 19.9998 4.27126C19.9998 2.12213 18.2718 0.373001 16.1473 0.373001C15.5481 0.369245 14.9563 0.505146 14.4188 0.769926C13.8813 1.03471 13.4129 1.42108 13.0507 1.89841C12.6885 1.42108 12.2201 1.03471 11.6826 0.769926C11.1451 0.505146 10.5533 0.369245 9.95412 0.373001C7.82957 0.373001 6.10162 2.12213 6.10162 4.27126C6.10162 5.23565 6.40925 6.17717 7.05839 7.18309C6.52628 7.26516 6.03446 7.51552 5.65502 7.89749L3.68809 9.86441H1.18643C0.871767 9.86441 0.569994 9.98941 0.347496 10.2119C0.124998 10.4344 0 10.7362 0 11.0508V14.4406C0 14.7553 0.124998 15.0571 0.347496 15.2796C0.569994 15.5021 0.871767 15.6271 1.18643 15.6271H9.99988C10.0416 15.6271 10.0831 15.6219 10.1236 15.6118L15.5473 14.2559C15.5729 14.2491 15.5981 14.2406 15.6227 14.2305L18.9125 12.8305L18.9405 12.8178C19.2313 12.6725 19.4804 12.4556 19.6643 12.1874C19.8482 11.9193 19.9608 11.6088 19.9914 11.2851C20.0221 10.9614 19.9699 10.6353 19.8397 10.3373C19.7095 10.0394 19.5056 9.77955 19.2472 9.58221V9.58052ZM9.95412 1.38994C10.5133 1.38248 11.062 1.54204 11.53 1.8482C11.998 2.15436 12.364 2.5932 12.5812 3.10856C12.6195 3.20182 12.6847 3.28158 12.7684 3.33772C12.8522 3.39386 12.9507 3.42383 13.0515 3.42383C13.1524 3.42383 13.2509 3.39386 13.3347 3.33772C13.4184 3.28158 13.4836 3.20182 13.5219 3.10856C13.739 2.5932 14.1051 2.15436 14.5731 1.8482C15.0411 1.54204 15.5898 1.38248 16.149 1.38994C17.6845 1.38994 18.9828 2.70941 18.9828 4.27126C18.9828 5.98649 17.6117 7.91528 15.0168 9.84323L13.7566 10.1331C13.8823 9.79961 13.9252 9.44066 13.8817 9.08699C13.8382 8.73331 13.7096 8.39546 13.5069 8.10241C13.3041 7.80936 13.0334 7.56985 12.7178 7.40442C12.4021 7.23899 12.0511 7.15257 11.6948 7.15258H8.27702C7.48805 6.10768 7.11856 5.18735 7.11856 4.27126C7.11856 2.70941 8.41685 1.38994 9.95412 1.38994ZM1.01694 14.4406V11.0508C1.01694 11.0059 1.03479 10.9628 1.06658 10.931C1.09836 10.8992 1.14148 10.8813 1.18643 10.8813H3.38979V14.6101H1.18643C1.14148 14.6101 1.09836 14.5923 1.06658 14.5605C1.03479 14.5287 1.01694 14.4856 1.01694 14.4406ZM18.4981 11.8983L15.2608 13.2771L9.93717 14.6101H4.40673V10.5839L6.37365 8.61612C6.515 8.47403 6.68313 8.3614 6.86831 8.28474C7.05349 8.20808 7.25204 8.16891 7.45245 8.16952H11.6948C12.0094 8.16952 12.3112 8.29452 12.5337 8.51701C12.7562 8.73951 12.8812 9.04128 12.8812 9.35594C12.8812 9.6706 12.7562 9.97238 12.5337 10.1949C12.3112 10.4174 12.0094 10.5424 11.6948 10.5424H9.32192C9.18707 10.5424 9.05774 10.5959 8.96238 10.6913C8.86703 10.7867 8.81345 10.916 8.81345 11.0508C8.81345 11.1857 8.86703 11.315 8.96238 11.4104C9.05774 11.5057 9.18707 11.5593 9.32192 11.5593H12.0338C12.072 11.5594 12.1101 11.5551 12.1473 11.5466L17.8252 10.2407L17.8456 10.2356C18.0593 10.1773 18.2869 10.2001 18.4849 10.2995C18.6829 10.3989 18.8371 10.5679 18.918 10.7741C18.9989 10.9803 19.0008 11.2091 18.9233 11.4166C18.8458 11.6241 18.6944 11.7956 18.4981 11.8983Z" fill="#DE387F"/>
</svg>
