<svg width="20" height="20" viewBox="0 0 20 20" fill="none" xmlns="http://www.w3.org/2000/svg">
<g id="Wrench">
<path id="Vector" d="M17.5711 5.44923C17.5426 5.37895 17.4976 5.31662 17.4398 5.26758C17.3819 5.21854 17.3131 5.18425 17.2391 5.16766C17.1651 5.15107 17.0883 5.15266 17.015 5.17231C16.9418 5.19196 16.8744 5.22908 16.8187 5.28048L13.6101 8.24142L12.0859 7.91408L11.7586 6.38986L14.7195 3.18126C14.7709 3.12554 14.808 3.05817 14.8277 2.98495C14.8473 2.91173 14.8489 2.83484 14.8323 2.76086C14.8157 2.68689 14.7814 2.61804 14.7324 2.56023C14.6834 2.50241 14.621 2.45736 14.5508 2.42892C13.5332 2.01644 12.4151 1.91979 11.3419 2.15153C10.2687 2.38328 9.29012 2.93269 8.53347 3.72828C7.77683 4.52387 7.27717 5.52878 7.09953 6.61226C6.92189 7.69573 7.07449 8.80759 7.53747 9.80314L2.74138 13.9438C2.73278 13.9508 2.72497 13.9586 2.71638 13.9672C2.49862 14.1849 2.32586 14.4433 2.20797 14.7277C2.09008 15.0121 2.02937 15.317 2.0293 15.6249C2.02915 16.2467 2.27602 16.843 2.71559 17.2828C3.15517 17.7226 3.75145 17.9698 4.37325 17.9699C4.99505 17.9701 5.59144 17.7232 6.03122 17.2836C6.03981 17.275 6.04763 17.2672 6.05466 17.2586L10.1953 12.4625C11.1908 12.9255 12.3027 13.0781 13.3862 12.9005C14.4696 12.7228 15.4746 12.2232 16.2701 11.4665C17.0657 10.7099 17.6151 9.73127 17.8469 8.65806C18.0786 7.58486 17.982 6.46675 17.5695 5.44923H17.5711ZM12.5 12.0313C11.7349 12.0309 10.9823 11.8369 10.3125 11.4672C10.2183 11.415 10.109 11.3969 10.003 11.4158C9.89701 11.4347 9.80076 11.4896 9.73044 11.5711L5.357 16.6313C5.09146 16.8857 4.73682 17.0259 4.3691 17.022C4.00138 17.018 3.64983 16.8702 3.3898 16.6102C3.12976 16.3502 2.98194 15.9986 2.978 15.6309C2.97406 15.2632 3.11432 14.9085 3.36872 14.643L8.42809 10.2727C8.51025 10.2021 8.56541 10.1052 8.58421 9.99852C8.60301 9.89184 8.58429 9.78195 8.53122 9.68751C8.10697 8.9201 7.9145 8.04607 7.97716 7.17143C8.03982 6.29679 8.35491 5.45912 8.88422 4.76001C9.41354 4.06091 10.1343 3.5304 10.9592 3.23284C11.784 2.93527 12.6775 2.88343 13.5312 3.08361L10.9047 5.93205C10.8538 5.9873 10.817 6.05397 10.7972 6.12644C10.7775 6.1989 10.7755 6.27505 10.7914 6.34845L11.2328 8.40705C11.2517 8.49541 11.2958 8.57641 11.3597 8.64031C11.4236 8.70421 11.5046 8.74827 11.5929 8.7672L13.6515 9.20861C13.7249 9.22446 13.8011 9.22245 13.8735 9.20274C13.946 9.18302 14.0127 9.14618 14.0679 9.09533L16.9133 6.46876C17.0677 7.13357 17.0702 7.82465 16.9204 8.49053C16.7707 9.15641 16.4726 9.77991 16.0484 10.3146C15.6242 10.8492 15.0848 11.2813 14.4704 11.5785C13.856 11.8758 13.1825 12.0305 12.5 12.0313Z" fill="#9C7901"/>
</g>
</svg>
