<svg width="44" height="44" viewBox="0 0 44 44" fill="none" xmlns="http://www.w3.org/2000/svg">
<path d="M38.2413 12.2187C37.7892 11.9563 37.2496 11.9271 36.7976 12.175C36.7393 12.2042 36.6809 12.2479 36.6226 12.2771C36.4768 12.3792 36.3747 12.4958 36.2726 12.5833C35.4122 13.4437 34.0123 14.8728 33.1519 15.7332C33.0644 15.8207 33.0061 15.879 32.9623 15.9082C32.9623 15.9082 32.9477 15.9082 32.9331 15.9228C32.904 15.9082 32.8456 15.8644 32.7582 15.7769C32.5686 15.5874 32.3644 15.3832 32.1748 15.1936C32.0144 15.0332 31.8686 14.8728 31.7082 14.7124L31.1832 14.1874C30.6436 13.6479 30.0895 13.0937 29.5499 12.5541C29.5499 12.5541 29.5499 12.5541 29.5354 12.5396C29.4333 12.4083 29.302 12.2917 29.1416 12.2042C28.8645 12.0729 28.6021 12 28.3396 12H28.325C28.0917 12 27.8729 12.0583 27.6688 12.1604C27.6104 12.1896 27.5521 12.2333 27.4938 12.2625C27.3479 12.3646 27.2459 12.4812 27.1438 12.5687C26.75 12.9625 26.2396 13.4874 25.7147 14.0124L23.9647 15.7624C23.8918 15.8353 23.8335 15.8936 23.7897 15.9228C23.7606 15.8936 23.7022 15.8644 23.6147 15.7769C23.4252 15.5874 23.221 15.3832 23.0314 15.1936C22.871 15.0332 22.7252 14.8728 22.5648 14.7124L22.0398 14.1874C21.5002 13.6479 20.9461 13.0937 20.4065 12.5541C20.1003 12.2479 19.7941 12.0729 19.4732 12.0146C19.4441 12.0146 19.4149 12.0146 19.3857 12.0146C19.342 12.0146 19.2837 12 19.2253 12C19.2253 12 19.2107 12 19.1962 12C19.1816 12 19.167 12 19.1378 12C19.1087 12 19.0941 12 19.0649 12H19.0358C18.992 12 18.9483 12 18.9191 12.0146C18.8899 12.0146 18.8608 12.0292 18.8316 12.0437C18.5837 12.1167 18.3504 12.2625 18.117 12.4812C17.84 12.7437 17.5337 13.0645 17.2129 13.3854C16.5421 14.0562 15.8713 14.727 15.2005 15.3978L14.7338 15.8644C14.7193 15.879 14.6901 15.8936 14.6755 15.9082C14.6755 15.9082 14.6755 15.9082 14.6463 15.8936C14.6172 15.879 14.588 15.8499 14.5297 15.8061C14.4713 15.7478 14.3984 15.6894 14.3401 15.6165L13.3339 14.6103C12.6485 13.9103 11.9485 13.225 11.2631 12.5396C10.8402 12.175 10.4173 12 9.99443 12C9.96527 12 9.95068 12 9.92152 12H9.89235C9.8486 12 9.81944 12 9.77569 12.0146C9.74652 12.0146 9.71736 12.0292 9.68819 12.0437C9.44029 12.1167 9.20696 12.2625 8.97364 12.4812C8.69656 12.7437 8.39033 13.0645 8.0695 13.3854C7.3987 14.0562 6.72789 14.727 6.05708 15.3978L5.1092 16.3457C5.03629 16.4186 4.94879 16.5061 4.86129 16.6227L4.51131 16.9727C4.14674 17.3373 3.98633 17.7165 4.00091 18.1102C4.00091 18.6206 4.27798 19.1018 4.71547 19.3643C5.16753 19.6268 5.70709 19.656 6.15916 19.4081C6.21749 19.3789 6.27582 19.3351 6.33415 19.306C6.47998 19.2039 6.58206 19.0872 6.68414 18.9852C7.54452 18.1248 8.94447 16.6957 9.80486 15.8353C9.89235 15.7478 9.95068 15.6894 9.99443 15.6603C9.99443 15.6603 10.009 15.6603 10.0236 15.6457C10.0528 15.6603 10.1111 15.704 10.1986 15.7915C10.3882 15.9811 10.5923 16.1853 10.7819 16.3748C10.9423 16.5352 11.1027 16.6957 11.2486 16.8561L11.7735 17.381C12.3131 17.9206 12.8672 18.4748 13.4068 19.0143C13.4068 19.0143 13.4068 19.0143 13.4214 19.0289C13.5235 19.1601 13.6547 19.2768 13.8151 19.3643C14.0484 19.5101 14.3255 19.583 14.588 19.583H14.6026C14.8359 19.583 15.0547 19.5247 15.2588 19.4226C15.3171 19.3935 15.3755 19.3497 15.4338 19.3206C15.5796 19.2185 15.6817 19.1018 15.7838 18.9997C16.1775 18.606 16.6879 18.081 17.2129 17.556L18.9628 15.8061C19.0358 15.7332 19.0941 15.6749 19.1378 15.6457C19.167 15.6749 19.2253 15.704 19.3128 15.7915C19.5024 15.9811 19.7066 16.1853 19.8961 16.3748C20.0565 16.5352 20.217 16.6957 20.3628 16.8561L20.8878 17.381C21.4273 17.9206 21.9815 18.4748 22.521 19.0143C22.8273 19.3206 23.1335 19.4956 23.4543 19.5539C23.4835 19.5539 23.5127 19.5539 23.5418 19.5539C23.6002 19.5539 23.6439 19.5685 23.7022 19.5685C23.7022 19.5685 23.7168 19.5685 23.7314 19.5685C23.746 19.5685 23.7606 19.5685 23.7897 19.5685C23.8189 19.5685 23.8335 19.5685 23.8627 19.5685H23.8918C23.9356 19.5685 23.9793 19.5685 24.0085 19.5539C24.0376 19.5539 24.0668 19.5393 24.096 19.5247C24.3439 19.4518 24.5772 19.306 24.8105 19.0872C25.0876 18.8247 25.3938 18.5039 25.7147 18.1831C26.3855 17.5123 27.0563 16.8415 27.7417 16.1707L28.2083 15.704C28.2229 15.6894 28.2521 15.6749 28.2667 15.6603C28.2667 15.6603 28.2812 15.6603 28.2812 15.6749C28.3104 15.6894 28.3396 15.7186 28.3979 15.7624C28.4562 15.8207 28.5291 15.879 28.5875 15.9519L29.5937 16.9581C30.2791 17.6581 30.9791 18.3435 31.6644 19.0289C32.0582 19.4226 32.4811 19.5976 32.904 19.583C32.9331 19.583 32.9477 19.583 32.9769 19.583H33.0061C33.0498 19.583 33.0936 19.583 33.1227 19.5685C33.1519 19.5685 33.1811 19.5539 33.2102 19.5393C33.4581 19.4664 33.6914 19.3206 33.9248 19.1018C34.2018 18.8393 34.5081 18.5185 34.8289 18.1977C35.4997 17.5269 36.1705 16.8561 36.8559 16.1853L37.8038 15.2374C37.8767 15.1645 37.9642 15.077 38.0517 14.9603L38.4017 14.5957C38.7371 14.2603 38.8975 13.8812 38.8829 13.4874C38.8829 12.9625 38.6058 12.4958 38.1684 12.2333L38.2413 12.2187Z" fill="#00DED2"/>
<path d="M38.2413 32.0948C37.7892 32.3573 37.2496 32.3719 36.7976 32.1386C36.7392 32.1094 36.6809 32.0656 36.6226 32.0365C36.4768 31.9344 36.3747 31.8177 36.2726 31.7302C35.4122 30.8699 34.0123 29.4407 33.1519 28.5804C33.0644 28.4929 33.0061 28.4345 32.9623 28.4054C32.9623 28.4054 32.9477 28.4054 32.9331 28.3908C32.904 28.42 32.8456 28.4491 32.7582 28.5366C32.5686 28.7262 32.3644 28.9304 32.1748 29.1199C32.0144 29.2803 31.8686 29.4407 31.7082 29.6012L31.1832 30.1261C30.6436 30.6657 30.0895 31.2198 29.5499 31.7594C29.5499 31.7594 29.5499 31.7594 29.5354 31.774C29.4333 31.9052 29.302 32.0219 29.1416 32.1094C28.9083 32.2552 28.6312 32.3281 28.3687 32.3136H28.3542C28.1208 32.3136 27.9021 32.2552 27.6979 32.1531C27.6396 32.124 27.5813 32.0802 27.5229 32.0511C27.3771 31.949 27.275 31.8323 27.1729 31.7448C26.7792 31.3511 26.2688 30.8261 25.7438 30.3011L23.9939 28.5512C23.921 28.4783 23.8627 28.4345 23.8189 28.3908C23.7897 28.42 23.7314 28.4491 23.6439 28.5366C23.4543 28.7262 23.2502 28.9304 23.0606 29.1199C22.9002 29.2803 22.7544 29.4407 22.594 29.6012L22.069 30.1261C21.5294 30.6657 20.9753 31.2198 20.4357 31.7594C20.1295 32.0657 19.8232 32.2406 19.5024 32.299C19.4732 32.299 19.4441 32.299 19.4149 32.299C19.3712 32.299 19.3128 32.3136 19.2545 32.3136C19.2545 32.3136 19.2399 32.3136 19.2253 32.3136C19.2107 32.3136 19.1962 32.3136 19.167 32.3136C19.1378 32.3136 19.1233 32.3136 19.0941 32.3136H19.0649C19.0212 32.3136 18.9774 32.3136 18.9483 32.299C18.9191 32.299 18.8899 32.2844 18.8608 32.2698C18.6129 32.1969 18.3795 32.0511 18.1462 31.8323C17.8691 31.5698 17.5629 31.249 17.2421 30.9282C16.5713 30.2574 15.9005 29.5866 15.2296 28.9158L14.763 28.4491C14.7484 28.4345 14.7193 28.42 14.7047 28.4054C14.7047 28.4054 14.7047 28.4054 14.6755 28.42C14.6463 28.4345 14.6172 28.4637 14.5588 28.5075C14.5005 28.5658 14.4276 28.6241 14.3693 28.697L13.3631 29.7032C12.6777 30.4032 11.9777 31.0886 11.2923 31.774C10.8986 32.1677 10.4757 32.3427 10.0528 32.3427C10.0236 32.3427 10.009 32.3427 9.97985 32.3427H9.95068C9.90693 32.3427 9.87777 32.3427 9.83402 32.3281C9.80485 32.3281 9.77569 32.3136 9.74652 32.299C9.49861 32.2261 9.26529 32.0802 9.03196 31.8615C8.75489 31.599 8.44865 31.2782 8.12783 30.9574C7.45702 30.2866 6.78622 29.6157 6.11541 28.9449L5.16753 27.9971C5.09461 27.9241 5.00712 27.8366 4.91962 27.72L4.56963 27.37C4.14673 26.9763 3.98632 26.5971 4.00091 26.2034C4.00091 25.6784 4.27798 25.2117 4.71546 24.9493C5.16753 24.6868 5.70709 24.6722 6.15916 24.9055C6.21749 24.9347 6.27582 24.9784 6.33415 25.0076C6.47998 25.1097 6.58206 25.2263 6.68414 25.3138C7.54452 26.1742 8.94447 27.6033 9.80485 28.4637C9.89235 28.5512 9.95068 28.6095 9.99443 28.6387C9.99443 28.6387 10.009 28.6387 10.0236 28.6533C10.0528 28.6241 10.1111 28.5949 10.1986 28.5075C10.3882 28.3179 10.5923 28.1137 10.7819 27.9241C10.9423 27.7637 11.1027 27.6033 11.2485 27.4429L11.7735 26.9179C12.3131 26.3784 12.8672 25.8242 13.4068 25.2847C13.4068 25.2847 13.4068 25.2847 13.4214 25.2701C13.5235 25.1388 13.6547 25.0222 13.8151 24.9347C14.0484 24.7888 14.3255 24.7159 14.588 24.7305H14.6026C14.8359 24.7305 15.0547 24.7888 15.2588 24.8909C15.3171 24.9201 15.3755 24.9638 15.4338 24.993C15.5796 25.0951 15.6817 25.2117 15.7838 25.2992C16.1775 25.693 16.6879 26.218 17.2129 26.7429L18.9628 28.4929C19.0358 28.5658 19.0941 28.6095 19.1378 28.6533C19.167 28.6241 19.2253 28.5949 19.3128 28.5075C19.5024 28.3179 19.7066 28.1137 19.8961 27.9241C20.0565 27.7637 20.217 27.6033 20.3628 27.4429L20.8878 26.9179C21.4273 26.3784 21.9815 25.8242 22.521 25.2847C22.8273 24.9784 23.1335 24.8034 23.4543 24.7451C23.4835 24.7451 23.5127 24.7451 23.5418 24.7451C23.6002 24.7451 23.6439 24.7305 23.7022 24.7305C23.7022 24.7305 23.7168 24.7305 23.7314 24.7305C23.746 24.7305 23.7606 24.7305 23.7897 24.7305C23.8189 24.7305 23.8335 24.7305 23.8627 24.7305H23.8918C23.9356 24.7305 23.9793 24.7305 24.0085 24.7451C24.0376 24.7451 24.0668 24.7597 24.096 24.7743C24.3439 24.8472 24.5772 24.993 24.8105 25.2117C25.0876 25.4742 25.3938 25.7951 25.7147 26.1159C26.3855 26.7867 27.0563 27.4575 27.7417 28.1283L28.2083 28.5949C28.2229 28.6095 28.2521 28.6241 28.2667 28.6387C28.2667 28.6387 28.2812 28.6387 28.2812 28.6241C28.3104 28.6095 28.3396 28.5804 28.3979 28.5366C28.4562 28.4783 28.5291 28.42 28.5875 28.347L29.5937 27.3408C30.2791 26.6409 30.9791 25.9555 31.6644 25.2701C32.0582 24.8763 32.4811 24.7013 32.904 24.7159C32.9331 24.7159 32.9477 24.7159 32.9769 24.7159H33.0061C33.0498 24.7159 33.0936 24.7159 33.1227 24.7305C33.1519 24.7305 33.1811 24.7451 33.2102 24.7597C33.4581 24.8326 33.6914 24.9784 33.9248 25.1972C34.2018 25.4596 34.5081 25.7805 34.8289 26.1013C35.4997 26.7721 36.1705 27.4429 36.8559 28.1137L37.8038 29.0616C37.8767 29.1345 37.9642 29.222 38.0517 29.3387L38.4017 29.6887C38.7371 30.0241 38.8975 30.4032 38.8829 30.7969C38.8829 31.3219 38.6058 31.7886 38.1684 32.0511L38.2413 32.0948Z" fill="#00DED2"/>
<path d="M10.0238 23.6368C10.8453 23.6368 11.5113 22.9708 11.5113 22.1493C11.5113 21.3278 10.8453 20.6619 10.0238 20.6619C9.20233 20.6619 8.53638 21.3278 8.53638 22.1493C8.53638 22.9708 9.20233 23.6368 10.0238 23.6368Z" fill="#00DED2"/>
<path d="M19.1962 23.6368C20.0177 23.6368 20.6836 22.9708 20.6836 22.1493C20.6836 21.3278 20.0177 20.6619 19.1962 20.6619C18.3747 20.6619 17.7087 21.3278 17.7087 22.1493C17.7087 22.9708 18.3747 23.6368 19.1962 23.6368Z" fill="#00DED2"/>
<path d="M28.3549 23.6368C29.1764 23.6368 29.8423 22.9708 29.8423 22.1493C29.8423 21.3278 29.1764 20.6619 28.3549 20.6619C27.5334 20.6619 26.8674 21.3278 26.8674 22.1493C26.8674 22.9708 27.5334 23.6368 28.3549 23.6368Z" fill="#00DED2"/>
<path d="M37.5126 23.6368C38.3341 23.6368 39 22.9708 39 22.1493C39 21.3278 38.3341 20.6619 37.5126 20.6619C36.6911 20.6619 36.0251 21.3278 36.0251 22.1493C36.0251 22.9708 36.6911 23.6368 37.5126 23.6368Z" fill="#00DED2"/>
</svg>
